<?xml version="1.0" standalone="no"?>
<!DOCTYPE svg PUBLIC "-//W3C//DTD SVG 20010904//EN"
 "http://www.w3.org/TR/2001/REC-SVG-20010904/DTD/svg10.dtd">
<svg version="1.0" xmlns="http://www.w3.org/2000/svg"
 width="70.000000pt" height="70.000000pt" viewBox="0 0 310.000000 310.000000"
 preserveAspectRatio="xMidYMid meet">

<g transform="translate(0.000000,310.000000) scale(0.100000,-0.100000)"
fill="#003672" stroke="none">
<path d="M1360 3074 c-228 -41 -327 -72 -495 -154 -291 -144 -549 -403 -690
-695 -61 -126 -104 -251 -131 -380 -27 -129 -27 -461 0 -590 114 -547 507
-990 1032 -1163 168 -56 249 -67 474 -67 225 0 305 11 475 67 412 135 765 457
932 851 46 108 67 174 95 299 20 89 23 130 23 308 0 221 -14 315 -72 490 -122
370 -418 708 -768 879 -147 72 -215 96 -390 138 -58 14 -430 27 -485 17z m290
-226 c0 -5 4 -8 9 -8 14 0 23 98 11 120 -10 18 -8 20 21 20 26 0 30 -3 23 -17
-4 -10 -10 -58 -13 -108 -5 -69 -9 -90 -21 -92 -8 -1 -41 29 -73 68 -32 38
-62 69 -67 69 -14 0 -12 -114 2 -128 9 -9 5 -12 -20 -12 -31 0 -33 1 -28 33 3
17 8 66 11 107 4 41 9 79 13 84 5 10 132 -121 132 -136z m-271 42 c12 -81 12
-92 -3 -115 -9 -14 -28 -30 -42 -35 -71 -27 -115 5 -134 96 -7 32 -19 69 -26
80 -12 20 -11 23 9 28 35 9 59 7 51 -5 -8 -14 15 -128 33 -156 18 -30 58 -30
78 0 14 21 14 32 1 90 -7 37 -19 73 -25 81 -12 14 -2 21 35 25 5 0 16 -39 23
-89z m525 54 c11 -4 13 -10 7 -18 -17 -21 -48 -173 -39 -191 9 -14 5 -15 -29
-9 -46 8 -49 10 -36 26 13 16 43 136 43 171 0 28 18 35 54 21z m151 -46 c18
-8 24 -17 19 -27 -12 -31 -17 -131 -6 -131 5 0 33 25 60 55 l50 55 24 -20 c18
-15 20 -19 7 -20 -10 0 -51 -31 -92 -70 -41 -38 -80 -70 -86 -70 -7 0 -11 35
-11 104 0 57 -3 111 -6 120 -7 19 6 20 41 4z m-1135 -78 c0 -29 66 -157 87
-168 14 -8 12 -12 -15 -26 -38 -20 -42 -20 -42 -1 0 22 -65 148 -85 165 -14
12 -13 15 12 31 36 24 43 24 43 -1z m1433 -80 c44 -27 56 -47 40 -63 -3 -4
-17 5 -31 20 l-24 26 -19 -24 c-24 -32 -24 -37 6 -51 28 -13 29 -16 14 -38 -8
-11 -12 -12 -16 -2 -2 7 -13 17 -23 22 -15 8 -23 4 -40 -20 -18 -25 -19 -34
-10 -45 7 -8 23 -15 36 -15 27 0 31 -12 11 -28 -10 -9 -26 -3 -64 23 -56 38
-72 55 -50 55 15 0 107 133 107 155 0 21 10 19 63 -15z m-1593 -15 c0 -8 -6
-15 -14 -15 -26 0 -39 -26 -24 -49 16 -26 34 -27 50 -2 9 15 15 17 25 9 17
-14 17 -38 -1 -38 -30 0 -36 -25 -12 -55 25 -32 54 -29 63 5 3 12 11 19 17 17
26 -9 13 -35 -33 -70 -53 -39 -74 -46 -65 -24 5 14 -97 152 -118 159 -14 5 78
78 98 78 8 0 14 -7 14 -15z m1065 -88 c208 -57 353 -138 503 -281 151 -144
255 -324 313 -541 21 -79 24 -112 24 -265 0 -192 -15 -274 -77 -425 -250 -607
-960 -870 -1551 -574 -140 70 -287 196 -389 334 -292 391 -292 939 0 1330 173
233 419 387 704 441 117 22 360 12 473 -19z m729 -57 c20 -22 36 -51 36 -63 0
-29 -26 -54 -60 -59 -23 -3 -25 -8 -30 -72 -5 -68 -5 -68 -24 -47 -15 17 -18
31 -13 76 3 32 1 57 -4 61 -15 9 -49 -26 -49 -49 0 -19 -3 -18 -30 8 l-30 28
28 17 c15 9 50 44 77 78 28 34 53 61 56 61 4 1 23 -17 43 -39z m-1986 -12 c18
-18 14 -30 -7 -23 -22 7 -46 -18 -37 -40 4 -11 20 -14 67 -13 54 1 64 -1 80
-21 25 -30 24 -62 -2 -95 -22 -28 -48 -33 -67 -14 -19 19 -14 27 14 25 15 -1
31 5 37 15 18 28 -5 41 -67 39 -44 -1 -60 3 -76 19 -27 27 -25 66 5 95 27 28
36 30 53 13z m-94 -241 c56 -37 85 -62 79 -68 -5 -5 -52 -20 -104 -33 l-94
-22 50 -32 c27 -18 55 -30 62 -28 17 7 16 -16 -2 -40 -14 -19 -14 -19 -29 2
-8 12 -47 40 -86 63 -39 24 -69 48 -67 54 2 7 45 21 96 33 51 12 94 24 97 27
8 7 -79 57 -99 57 -18 0 -21 9 -11 35 8 19 -1 23 108 -48z m2270 30 c15 -21
18 -32 10 -44 -17 -28 -36 -28 -29 -1 4 16 1 29 -9 37 -24 20 -46 -4 -46 -49
0 -81 -74 -119 -125 -64 -30 32 -32 60 -6 74 29 15 32 13 19 -15 -8 -19 -8
-28 2 -40 28 -34 52 -12 63 59 12 78 77 101 121 43z m96 -166 c14 -26 13 -48
-2 -48 -23 -1 -166 -73 -171 -86 -3 -8 -10 -6 -21 8 -17 22 -22 60 -6 50 12
-7 170 72 170 85 0 17 19 11 30 -9z m-2474 -156 c35 -34 36 -37 32 -92 -4 -48
-10 -61 -37 -85 -85 -76 -220 7 -190 117 17 60 58 95 113 95 37 0 51 -6 82
-35z m2564 -76 c12 -44 19 -87 16 -95 -10 -27 -26 -14 -26 21 0 19 -5 35 -11
35 -19 0 -153 -42 -166 -52 -17 -14 -33 -1 -33 26 0 18 7 25 28 29 54 10 147
41 154 51 4 6 1 21 -7 33 -19 29 -19 33 4 33 15 0 23 -16 41 -81z m-2714 -240
c19 -11 54 -21 79 -22 44 -2 45 -3 45 -36 0 -28 -3 -32 -17 -26 -45 19 -77 17
-134 -11 -33 -15 -59 -31 -59 -36 0 -4 -4 -8 -10 -8 -5 0 -10 16 -10 35 0 27
4 35 18 35 9 1 32 9 51 19 l34 18 -31 21 c-16 12 -37 22 -46 22 -10 0 -16 9
-16 23 0 36 11 39 38 12 14 -14 40 -34 58 -46z m2763 14 c1 -6 -9 -15 -21 -19
-27 -8 -67 -36 -68 -46 0 -4 21 -14 48 -21 39 -12 48 -18 50 -40 2 -15 -1 -27
-7 -27 -6 0 -11 4 -11 9 0 4 -26 20 -58 33 -58 25 -112 28 -139 6 -12 -10 -14
-1 -13 59 0 4 17 6 38 5 39 -3 106 33 148 79 l19 21 6 -24 c4 -12 7 -28 8 -35z
m-2651 -515 c26 -26 7 -78 -28 -78 -9 0 -25 9 -35 20 -37 41 24 97 63 58z
m2513 2 c27 -15 26 -66 -2 -80 -16 -9 -26 -8 -45 5 -30 19 -31 49 -2 69 27 19
24 19 49 6z m-2256 -405 c14 -13 25 -32 25 -42 1 -30 26 -56 48 -49 13 5 22 1
27 -11 5 -14 -7 -30 -47 -66 -69 -63 -86 -73 -94 -52 -4 9 2 25 12 36 21 24
10 52 -23 57 -11 2 -31 14 -43 27 -68 72 26 170 95 100z m2037 -30 c36 -30 76
-55 87 -55 33 0 25 -20 -44 -105 -69 -84 -92 -98 -87 -53 2 18 -5 32 -24 47
-16 13 -24 27 -20 36 8 21 29 19 51 -5 10 -11 23 -20 28 -20 6 0 -2 13 -17 29
-19 19 -26 36 -22 47 6 15 8 15 29 0 46 -33 57 -37 57 -23 0 11 -32 41 -101
95 -14 11 -23 5 -60 -42 -43 -53 -62 -66 -73 -47 -7 11 104 151 119 151 6 0
40 -25 77 -55z m-2163 -69 c9 -11 9 -19 0 -34 -11 -18 -7 -26 29 -70 44 -52
52 -72 28 -72 -14 0 -126 121 -126 136 0 10 41 54 51 54 3 0 12 -6 18 -14z
m1726 -238 c7 -16 17 -22 33 -20 23 3 32 -21 12 -33 -6 -4 -10 -16 -8 -28 2
-16 -3 -23 -17 -25 -16 -2 -26 10 -48 53 -33 67 -33 75 -4 75 14 0 26 -9 32
-22z m-1221 6 c22 -8 20 -18 -10 -54 -25 -28 -26 -35 -16 -67 6 -20 9 -40 6
-45 -11 -17 -30 -7 -41 23 -10 25 -16 30 -30 24 -56 -23 -65 2 -13 37 19 13
44 38 55 55 21 34 25 36 49 27z m1147 -26 c1 -7 1 -17 0 -21 -1 -4 5 -18 14
-30 8 -12 15 -30 15 -40 0 -28 -45 -67 -78 -67 -34 0 -49 16 -87 86 -9 17 52
76 72 70 10 -3 25 -1 33 4 20 13 30 12 31 -2z m-1051 -19 c0 -5 9 -9 20 -9 35
0 32 -23 -17 -128 -34 -74 -52 -102 -65 -102 -12 0 -18 8 -19 23 0 12 -3 16
-6 10 -6 -16 -29 -17 -39 -2 -3 6 6 38 21 70 27 55 27 60 12 77 -19 21 -13 32
18 32 13 0 26 9 33 25 11 23 42 26 42 4z m1195 -110 c9 -17 14 -37 11 -45 -7
-19 -32 -18 -40 1 -8 22 -29 19 -95 -15 -50 -25 -61 -27 -71 -15 -9 11 -5 17
22 31 60 32 143 72 150 73 4 1 15 -13 23 -30z m-720 -9 c0 -9 -12 -17 -30 -20
-29 -5 -30 -7 -33 -63 l-3 -58 48 3 48 3 0 76 0 77 48 0 47 0 0 -122 0 -123
-44 0 c-38 0 -46 4 -50 23 -6 21 -13 23 -69 26 l-62 3 -3 98 -3 98 53 -3 c39
-2 53 -7 53 -18z"/>
<path d="M1500 2449 c-173 -118 -444 -200 -705 -212 l-50 -2 -3 -285 c-2 -247
8 -483 21 -496 2 -2 48 3 103 11 326 49 679 66 949 46 145 -11 406 -41 490
-57 31 -5 33 -4 39 28 9 46 20 701 12 732 -6 24 -10 26 -69 26 -67 0 -214 20
-287 39 -153 40 -330 115 -409 175 -19 14 -37 26 -40 26 -3 0 -26 -14 -51 -31z
m187 -234 c58 -26 124 -90 156 -150 18 -33 22 -57 22 -140 0 -85 -3 -106 -23
-143 -35 -66 -88 -119 -150 -149 -49 -24 -70 -28 -142 -28 -73 0 -93 4 -142
28 -67 33 -121 90 -155 164 -22 49 -25 65 -21 141 3 57 11 99 22 122 85 164
268 229 433 155z m433 -165 c0 -10 18 -37 40 -59 45 -44 46 -48 25 -77 -8 -12
-13 -34 -12 -49 1 -20 -4 -32 -18 -39 -16 -9 -20 -23 -23 -75 -4 -117 -49
-118 -54 -1 -2 53 -7 67 -23 75 -29 15 -30 41 -3 48 22 6 22 7 -10 40 -36 37
-38 45 -18 72 13 19 16 18 56 -23 31 -33 39 -48 34 -64 -4 -14 -2 -18 5 -14
20 13 11 42 -24 76 -41 39 -42 48 -14 84 24 31 39 33 39 6z m-1145 -175 l0
-80 -42 -3 -43 -3 0 86 0 86 43 -3 42 -3 0 -80z m105 0 l0 -85 -39 0 c-46 0
-51 9 -51 85 0 76 5 85 51 85 l39 0 0 -85z m-210 -7 c0 -35 4 -69 9 -76 6 -10
35 -14 104 -14 53 0 101 3 106 7 6 3 11 37 11 76 0 39 4 69 10 69 6 0 10 -35
10 -85 l0 -85 -49 0 c-28 0 -53 -4 -56 -10 -3 -5 -17 -10 -30 -10 -13 0 -27 5
-30 10 -3 6 -28 10 -56 10 l-49 0 0 85 c0 50 4 85 10 85 6 0 10 -28 10 -62z"/>
<path d="M1462 2059 c-69 -45 -94 -154 -49 -220 28 -42 91 -79 135 -79 44 0
105 33 133 71 50 71 28 183 -44 228 -47 29 -130 28 -175 0z"/>
<path d="M1400 1464 c-148 -8 -359 -25 -410 -34 -30 -5 -90 -14 -133 -21 -43
-7 -80 -15 -82 -19 -3 -4 7 -45 20 -91 32 -108 122 -288 181 -363 l46 -59 264
264 264 264 264 -264 263 -263 35 44 c50 62 92 133 132 218 39 85 89 238 81
249 -5 9 -26 13 -180 36 -190 28 -575 48 -745 39z"/>
<path d="M1352 937 l-193 -194 38 -33 c54 -48 185 -131 276 -176 l77 -38 78
38 c90 45 221 128 275 176 l38 33 -193 194 c-106 106 -195 193 -198 193 -3 0
-92 -87 -198 -193z m155 -109 c13 -16 23 -92 14 -105 -11 -17 -42 -23 -62 -12
-17 9 -19 17 -13 57 7 50 19 72 39 72 7 0 17 -6 22 -12z m113 -3 c7 -8 10 -22
6 -31 -3 -8 -1 -24 4 -34 20 -38 -19 -72 -59 -50 -16 8 -20 19 -17 54 3 66 37
96 66 61z m108 -2 c2 -7 -3 -13 -12 -13 -20 0 -21 -16 -1 -24 9 -3 15 -18 15
-36 0 -24 -6 -33 -26 -40 -27 -11 -44 -6 -44 11 0 6 9 8 19 4 29 -9 36 14 12
39 -23 25 -28 62 -8 69 19 8 40 3 45 -10z m-322 -16 c10 -41 1 -102 -16 -102
-11 0 -16 13 -18 49 -2 27 -1 55 2 62 8 22 25 16 32 -9z"/>
<path d="M1475 811 c-3 -5 -1 -12 5 -16 5 -3 10 1 10 9 0 18 -6 21 -15 7z"/>
<path d="M1470 740 c0 -13 5 -20 13 -17 6 2 12 10 12 17 0 7 -6 15 -12 18 -8
2 -13 -5 -13 -18z"/>
<path d="M1585 811 c-3 -5 -1 -12 5 -16 5 -3 10 1 10 9 0 18 -6 21 -15 7z"/>
<path d="M1580 740 c0 -13 5 -20 13 -17 6 2 12 10 12 17 0 7 -6 15 -12 18 -8
2 -13 -5 -13 -18z"/>
<path d="M2502 2537 c-24 -25 -28 -42 -12 -52 19 -12 60 24 60 50 0 31 -20 32
-48 2z"/>
<path d="M211 1994 c-12 -15 -21 -32 -21 -40 0 -67 114 -101 165 -49 54 53 9
115 -84 115 -31 0 -44 -6 -60 -26z"/>
<path d="M515 786 c-11 -8 -16 -19 -12 -30 9 -23 34 -31 52 -16 20 16 19 46
-1 54 -20 8 -17 8 -39 -8z"/>
<path d="M590 701 c0 -5 5 -13 10 -16 6 -3 10 -2 10 4 0 5 -4 13 -10 16 -5 3
-10 2 -10 -4z"/>
<path d="M2047 394 c-13 -14 -7 -52 10 -58 25 -10 51 20 37 42 -12 19 -36 27
-47 16z"/>
<path d="M1005 309 c-4 -6 -5 -12 -2 -15 2 -3 7 2 10 11 7 17 1 20 -8 4z"/>
</g>
</svg>
